<svg xmlns="http://www.w3.org/2000/svg" viewBox="0 -0.5 870 870" shape-rendering="crispEdges">
<path stroke="rgba(128,128,255,0.00784313725490196)" d="M246 206h1M233 219h1M355 236h1M299 240h1M392 250h1M258 255h1M266 261h1M380 261h1M374 264h1M332 276h1M515 293h1M617 300h1M617 301h1M473 304h1M611 314h1M508 326h1M523 331h1M525 331h1M560 332h1M398 337h1M360 351h1M357 358h1M385 378h1M348 381h1M383 384h1M346 386h1M382 386h1M375 403h1M361 438h1M323 444h1M356 452h1M313 473h1M344 500h1M311 506h1M350 509h1M397 509h1M312 510h1M417 510h1M419 511h1M358 512h1M425 515h1M336 539h1M418 545h1M381 546h1M350 614h1M353 615h1M355 616h1M534 616h1M543 616h1M531 617h1M546 617h1M358 618h1M529 618h1M548 618h1M359 619h1M524 621h1M330 622h1M362 623h1M555 625h1M328 626h1M514 626h1M556 627h1M327 630h1M557 630h1M376 637h1M486 638h1M483 639h1M557 639h1M556 642h1M555 644h1M395 645h1M460 645h1M400 646h1M446 647h1M412 648h4M436 648h1M548 651h1M546 652h1M534 658h1M343 659h1M344 660h1M526 662h1M517 666h1M515 667h1M512 668h1M501 672h1M499 673h1M496 674h1M492 675h1M470 681h1M461 683h1M444 685h1M418 686h1M434 686h1" />
<path stroke="rgba(73,109,219,0.027450980392156862)" d="M247 206h1M239 210h1M237 212h1M233 220h1M273 225h1M291 237h1M345 240h1M318 243h1M325 243h1M251 249h1M277 267h1M368 267h1M460 270h1M488 270h1M493 277h1M496 280h1M458 284h1M508 290h1M586 290h1M499 322h1M505 325h1M559 332h1M367 333h1M366 335h1M358 356h1M354 366h1M373 408h1M337 409h1M352 461h1M311 502h1M311 504h1M386 511h1M426 516h1M321 527h1M332 537h1M413 545h1M377 546h3M348 614h1M536 616h1M528 619h1M549 619h1M554 624h1M500 633h1M498 634h1M490 637h1M557 637h1M487 638h1M388 643h1M331 644h1M461 645h1M554 645h1M450 647h1M439 648h4M549 650h1M532 659h1M355 668h1M511 668h1M367 674h1M495 674h1M386 681h1M469 681h1M421 686h3" />
<path stroke="rgba(64,106,234,0.047058823529411764)" d="M248 206h1M235 215h1M391 238h1M242 240h1M314 243h2M327 276h1M610 288h1M613 291h1M573 295h1M524 297h1M558 299h1M477 307h1M585 326h1M369 418h1M366 426h1M363 433h1M322 448h1M350 466h1M343 493h1M387 511h1M354 616h1M530 618h1M547 618h1M557 634h1M496 635h1M557 635h1M402 647h1M408 648h1M443 648h1M336 651h1M547 651h1M346 661h1M387 681h1M390 682h1M396 683h1M458 683h1" />
<path stroke="rgba(68,119,238,0.058823529411764705)" d="M249 206h1M259 209h1M233 222h1M233 223h1M272 224h1M306 242h1M299 274h1M313 276h1M501 285h1M579 293h1M521 296h1M488 316h1M590 324h1M378 325h1M375 326h1M520 330h1M346 387h1M317 461h1M429 537h1M527 620h1M330 623h1M385 642h1M471 643h1M333 646h1M451 647h1M429 649h1M342 657h1M494 674h1M371 676h1M382 680h1M456 683h1M402 684h1M450 684h1M437 685h1M441 685h1" />
<path stroke="rgba(64,112,239,0.06274509803921569)" d="M250 206h1M265 216h1M271 223h1M383 230h1M236 232h1M313 243h1M376 263h1M364 268h1M461 269h1M319 276h2M607 316h1M493 319h1M375 402h1M338 407h1M312 509h1M392 510h1M360 513h1M322 528h1M357 618h1M507 630h1M477 641h1M423 649h1M337 652h1M541 654h1M537 656h1M411 685h1M438 685h1" />
<path stroke="rgba(59,118,235,0.050980392156862744)" d="M251 206h1M233 224h1M275 227h1M240 237h1M243 241h1M341 241h1M316 243h1M384 259h1M458 275h1M603 285h1M567 297h1M614 310h1M609 315h1M490 317h1M603 318h1M564 331h1M558 332h1M398 344h1M394 355h1M393 357h1M357 359h1M383 383h1M349 468h1M312 477h1M345 480h1M343 494h1M423 514h1M318 522h1M338 540h1M340 615h1M538 616h2M364 627h1M390 644h1M462 645h1M457 646h1M418 649h1M424 649h1M516 666h1M491 675h1M484 677h1M377 678h1M472 680h1M397 683h1" />
<path stroke="rgba(57,113,227,0.03529411764705882)" d="M252 206h1M238 211h1M270 222h1M233 225h1M390 236h1M324 243h1M392 249h1M253 251h1M254 252h1M362 269h1M459 272h1M510 291h1M563 298h1M513 328h1M394 330h1M395 352h1M352 371h1M351 374h1M386 375h1M345 390h1M314 469h1M311 483h1M391 510h1M356 512h1M325 531h1M346 543h1M416 545h1M347 614h1M525 621h1M361 622h1M481 640h1M474 642h1M470 643h1M394 645h1M341 656h1M535 657h1M514 667h1M504 671h1M485 677h1M394 683h1M459 683h1M410 685h1" />
<path stroke="rgba(64,128,255,0.01568627450980392)" d="M253 206h1M267 218h1M358 235h1M334 242h1M321 243h1M326 243h1M391 252h1M352 272h1M297 274h1M328 276h1M596 285h1M461 290h1M462 291h1M614 292h1M522 296h1M562 298h1M472 303h1M494 320h1M600 320h1M496 321h1M386 325h1M578 328h1M369 330h1M570 330h1M533 332h2M363 343h1M397 348h1M347 384h1M342 397h1M334 417h1M320 452h1M355 454h1M353 459h1M345 503h1M346 505h1M313 512h1M357 512h1M420 512h1M314 515h1M428 518h1M428 539h1M399 542h1M421 544h1M380 546h1M349 614h1M339 615h1M535 616h1M542 616h1M519 624h1M511 628h1M327 631h1M557 631h1M369 632h1M370 633h1M327 634h1M557 638h1M383 641h1M447 647h2M437 648h1M538 656h1M522 664h1M353 667h1M478 679h1M389 682h1M429 686h1" />
<path stroke="rgba(0,0,255,0.00392156862745098)" d="M243 207h1M261 210h1M262 211h1M235 214h1M234 216h1M268 219h1M233 227h1M279 230h1M237 234h1M239 236h1M289 236h1M392 239h1M338 241h1M310 242h1M320 243h1M389 255h1M262 259h1M269 263h1M465 265h1M483 265h1M462 267h1M486 267h1M461 268h1M487 268h1M281 269h1M458 274h1M330 276h2M333 276h1M494 278h1M497 281h1M605 285h1M593 286h1M460 289h1M578 293h1M575 294h1M561 298h1M557 299h1M617 302h1M615 309h1M602 319h1M594 323h1M391 327h1M583 327h1M522 331h1M567 331h1M530 332h1M397 334h1M365 337h1M396 350h1M393 358h1M392 361h1M390 365h1M349 378h1M338 406h1M371 414h1M369 419h1M328 431h1M364 431h1M325 439h1M324 442h1M359 444h1M357 450h1M349 469h1M311 482h1M310 495h1M310 496h1M310 497h1M383 511h1M374 513h1M326 532h1M339 541h1M425 542h1M358 546h1M370 547h3M341 614h1M338 615h1M360 620h1M526 620h1M551 620h1M552 621h1M553 622h1M520 623h1M516 625h1M364 626h1M327 629h1M367 630h1M368 631h1M504 631h1M502 632h1M499 633h1M494 635h1M327 636h1M375 636h1M491 636h1M378 638h1M380 639h1M478 640h1M384 641h1M475 641h1M329 642h1M387 642h1M473 642h1M389 643h1M392 644h1M465 644h1M333 647h1M444 647h2M553 647h1M411 648h1M416 648h1M435 648h1M552 648h1M334 649h1M551 649h1M542 654h1M342 658h1M531 660h1M345 661h1M528 661h1M348 663h1M354 668h1M356 669h1M508 670h1M360 671h1M502 672h1M366 674h1M368 675h1M490 676h1M487 677h1M374 678h1M378 679h1M380 680h1M383 681h1M391 683h1M453 684h1M408 685h1M426 686h2" />
<path stroke="rgba(64,128,223,0.03137254901960784)" d="M244 207h1M234 217h1M371 229h1M287 235h1M302 241h1M323 243h1M279 268h1M504 287h1M514 293h1M465 295h1M476 306h1M480 310h1M392 328h1M517 329h1M575 329h1M341 399h1M331 425h1M325 440h1M321 450h1M351 510h1M353 511h1M427 517h1M334 538h1M427 540h1M407 543h1M351 545h1M376 546h1M344 614h1M352 615h1M541 616h1M356 617h1M532 617h1M545 617h1M333 619h1M332 620h1M328 627h1M556 628h1M503 632h1M557 632h1M379 639h1M556 641h1M455 646h1M334 648h1M425 649h1M545 652h1M340 655h1M352 666h1M498 673h1M489 676h1M379 679h1M401 684h1" />
<path stroke="rgba(67,111,233,0.09019607843137255)" d="M245 207h1M257 208h1M234 218h1M391 251h1M486 268h1M458 283h1M602 285h1M459 286h1M502 286h1M564 298h1M475 305h1M501 323h1M553 332h1M397 347h1M356 362h1M391 362h1M380 390h1M337 410h1M335 415h1M370 415h1M334 418h1M399 509h1M418 511h1M431 525h1M398 542h1M410 544h1M358 619h1M359 620h1M344 659h1M483 677h1M480 678h1M413 685h1" />
<path stroke="rgba(67,116,233,0.1803921568627451)" d="M246 207h1M234 219h1M300 241h1M338 242h1M523 297h1M540 300h1M471 301h1M474 304h1M349 380h1M317 462h1M333 537h1M334 619h1M328 630h1M373 636h1M404 648h1M413 649h1M370 675h1M427 685h1" />
<path stroke="rgba(66,117,233,0.27450980392156865)" d="M247 207h1M382 230h1M264 259h1M615 307h1M491 317h1M524 330h1M311 491h1M430 523h1M341 541h1M379 640h1M340 654h1M464 681h1" />
<path stroke="rgba(65,116,232,0.35294117647058826)" d="M248 207h1M368 266h1M365 267h1M356 270h1M499 284h1M464 292h1M484 312h1M591 323h1M366 338h1M379 391h1M369 416h1M336 538h1M347 615h1M354 617h1M357 619h1M349 662h1M443 684h1" />
<path stroke="rgba(65,115,232,0.4)" d="M249 207h1M377 229h1M303 242h1M273 264h1M485 268h1M312 275h1M492 277h1M604 286h1M615 296h1M595 321h1M570 329h1M549 332h1M363 346h1M373 406h1M348 469h1M332 536h1M379 545h1M527 621h1M498 635h1M490 638h1M456 647h1M459 682h1" />
<path stroke="rgba(64,116,233,0.403921568627451)" d="M250 207h1M234 222h1M254 251h1M380 260h1M504 288h1M566 298h1M413 544h1M537 617h1M540 617h1M556 633h1M556 636h1" />
<path stroke="rgba(64,117,231,0.3764705882352941)" d="M251 207h1M353 238h1M340 242h1M478 264h1M486 269h1M349 272h1M570 297h1M600 319h1M540 332h1M352 459h1M318 521h1M409 543h1M346 615h1M500 634h1M409 649h1M373 676h1M478 678h1" />
<path stroke="rgba(64,115,233,0.3137254901960784)" d="M252 207h1M467 265h1M536 300h1M602 318h1M340 404h1M315 468h1M311 487h1M417 511h1M426 517h1M404 541h1M352 616h1M555 641h1M399 647h1M364 672h1M376 677h1M460 682h1" />
<path stroke="rgba(66,114,233,0.22745098039215686)" d="M253 207h1M349 239h1M260 256h1M284 269h1M334 275h1M458 281h1M575 295h1M360 353h1M376 399h1M374 404h1M371 412h1M379 513h1M337 617h1M362 625h1M328 634h1M453 683h1" />
<path stroke="rgba(62,116,232,0.12941176470588237)" d="M254 207h1M372 229h1M549 300h1M613 311h1M492 318h1M601 319h1M518 329h1M386 374h1M325 441h1M351 463h1M347 473h1M403 509h1M359 513h1M529 619h1M548 619h1M389 644h1M554 644h1" />
<path stroke="rgba(73,109,237,0.054901960784313725)" d="M255 207h1M234 228h1M283 233h1M295 239h1M392 241h1M274 265h1M533 299h1M593 323h1M373 327h1M396 333h1M397 335h1M364 341h1M376 400h1M344 501h1M359 546h1M550 620h1M523 622h1M553 623h1M362 624h1M488 638h1M397 646h1M553 646h1M420 649h1M550 649h1M339 654h1M521 664h1M468 681h1M457 683h1" />
<path stroke="rgba(85,85,255,0.011764705882352941)" d="M256 207h1M258 208h1M240 209h1M236 213h1M274 226h1M234 229h1M235 231h1M362 233h1M350 238h1M303 241h1M340 241h1M308 242h2M319 243h1M252 250h1M255 253h1M388 256h1M260 257h1M387 257h1M261 258h1M271 264h1M467 264h1M481 264h1M287 271h1M355 271h1M337 275h1M459 287h1M609 287h1M590 288h1M517 294h1M519 295h1M529 298h1M471 302h1M612 313h1M605 317h1M591 324h1M377 325h1M510 327h1M371 328h1M519 330h1M395 331h1M524 331h1M531 332h1M356 361h1M391 363h1M387 372h1M381 388h1M378 395h1M339 404h1M372 411h1M333 420h1M330 427h1M366 427h1M358 446h1M322 447h1M348 472h1M390 510h1M384 511h1M361 513h1M431 533h1M412 545h1M342 614h1M335 617h1M522 622h1M363 625h1M508 629h1M506 630h1M327 635h1M373 635h1M328 639h1M479 640h1M330 643h1M469 643h1M466 644h1M453 646h1M403 647h1M410 648h1M519 665h1M509 669h1M505 671h1M370 676h1M372 677h1M375 678h1M473 680h1M384 681h1M464 682h1M392 683h1M400 684h1M419 686h1M425 686h1M428 686h1M433 686h1" />
<path stroke="rgba(70,116,232,0.043137254901960784)" d="M242 208h1M233 221h1M269 221h1M293 238h1M335 242h1M245 243h1M317 243h1M328 243h1M382 260h1M378 262h1M464 266h1M484 266h1M285 270h1M292 272h1M489 272h1M597 285h1M587 325h1M393 329h1M389 367h1M348 382h1M344 392h1M367 423h1M326 437h1M357 449h1M398 509h1M320 525h1M415 545h1M537 616h1M540 616h1M521 623h1M555 626h1M509 629h1M505 631h1M557 633h1M484 639h1M555 643h1M332 645h1M419 649h1M349 663h1M518 665h1M500 672h1M369 675h1M477 679h1M463 682h1M395 683h1" />
<path stroke="rgba(64,116,232,0.17254901960784313)" d="M243 208h1M284 234h1M392 245h1M614 293h1M383 325h1M353 370h1M322 449h1M314 513h1M328 533h1M332 621h1M361 623h1M536 656h1" />
<path stroke="rgba(64,116,233,0.3607843137254902)" d="M244 208h1M273 226h1M380 388h1M320 455h1M347 472h1M344 503h1M523 623h1M492 637h1" />
<path stroke="rgba(65,116,231,0.5529411764705883)" d="M245 208h1M351 239h1M482 266h1M521 297h1M505 324h1M312 503h1M347 508h1M313 509h1M428 520h1M333 621h1M382 642h1M332 643h1M420 650h1M456 682h1" />
<path stroke="rgba(65,117,232,0.6941176470588235)" d="M246 208h1M385 257h1M394 351h1M385 374h1M337 413h1M342 497h1M401 510h1M393 511h1M339 617h1M329 630h1M453 648h1M490 674h1M375 676h1M403 683h1" />
<path stroke="rgba(65,116,232,0.7843137254901961)" d="M247 208h1M331 244h1M357 269h1M370 412h1M430 529h1M365 545h1M532 619h1M545 619h1M358 621h1M554 628h1M329 634h1M554 641h1" />
<path stroke="rgba(65,116,233,0.8470588235294118)" d="M248 208h1M269 261h1M360 268h1M609 289h1M491 316h1M368 335h1M361 353h1M390 361h1M342 401h1M369 414h1M335 419h1M312 488h1M312 489h1M314 510h1M384 513h1M371 515h1M509 631h1M354 665h1" />
<path stroke="rgba(65,116,232,0.8823529411764706)" d="M249 208h1M273 227h1M365 266h1M284 268h1M340 273h1M491 277h1M502 322h1M579 326h1M524 329h1M367 338h1M394 350h1M326 442h1M315 472h1M357 514h1M321 524h1M341 540h1M538 618h2M555 634h1M555 635h1M377 640h1M482 676h1M386 679h1" />
<path stroke="rgba(65,116,233,0.8901960784313725)" d="M250 208h1M279 232h1M360 236h1M478 265h1M581 294h1M376 396h1M339 409h1M337 414h1M324 447h1M345 475h1M344 541h1M421 542h1M335 620h1M441 650h1M492 673h1" />
<path stroke="rgba(65,117,232,0.8666666666666667)" d="M251 208h1M256 252h1M465 292h1M588 323h1M542 331h2M396 345h1M393 353h1M367 419h1M363 429h1M320 457h1M313 481h1M312 499h1M319 521h1M423 541h1M340 617h1M379 641h1" />
<path stroke="rgba(65,116,232,0.8196078431372549)" d="M252 208h1M342 242h1M467 266h1M481 266h1M341 273h1M334 274h1M366 340h1M318 462h1M313 480h1M312 500h1M417 512h1M344 616h1M354 618h1M332 623h1M329 633h1M395 647h1M405 649h1" />
<path stroke="rgba(64,115,232,0.7450980392156863)" d="M253 208h1M243 239h1M352 239h1M257 253h1M486 270h1M506 290h1M520 297h1M540 301h1M387 327h1M345 506h1M426 518h1M430 530h1M335 537h1M398 541h1M406 649h1M437 650h1M493 673h1" />
<path stroke="rgba(65,116,231,0.6352941176470588)" d="M254 208h1M276 229h1M371 264h1M545 301h1M382 382h1M407 649h1M388 680h1" />
<path stroke="rgba(65,117,231,0.4627450980392157)" d="M255 208h1M385 232h1M480 309h1M575 328h1M396 335h1M354 369h1M352 374h1M328 435h1M398 510h1M323 528h1M414 544h1M410 684h1" />
<path stroke="rgba(67,118,231,0.2549019607843137)" d="M256 208h1M236 231h1M309 243h1M345 273h1M598 320h1M579 327h1M355 452h1M383 512h1M535 617h1M513 628h1M511 629h1M476 642h1M386 643h1M469 644h1M540 654h1M350 663h1M519 664h1M512 667h1M420 685h1" />
<path stroke="rgba(66,117,233,0.13725490196078433)" d="M241 209h1M234 227h1M277 229h1M337 242h1M323 276h1M542 300h1M610 314h1M596 321h1M580 327h1M378 394h1M332 423h1M314 471h1M353 545h1M366 546h1M366 630h1M328 636h1M384 642h1M360 670h1M418 685h1" />
<path stroke="rgba(65,117,232,0.3843137254901961)" d="M242 209h1M234 224h1M350 239h1M318 244h1M391 249h1M255 252h1M378 393h1M361 514h1M407 542h1M336 618h1" />
<path stroke="rgba(65,115,232,0.6588235294117647)" d="M243 209h1M475 264h1M546 301h1M610 313h1M514 327h1M327 438h1M356 448h1M424 516h1M426 539h1M416 650h1M351 663h1M497 672h1M370 674h1M372 675h1M416 684h2" />
<path stroke="rgba(65,116,231,0.8509803921568627)" d="M244 209h1M235 221h1M271 225h1M304 243h1M289 270h1M537 301h1M572 328h1M358 442h1M409 510h1M330 627h1M543 651h1M345 658h1M530 658h1M379 677h1M459 681h1M444 683h1" />
<path stroke="rgba(65,116,233,0.9568627450980393)" d="M245 209h1" />
<path stroke="#4174e8" d="M246 209h8M244 210h13M242 211h17M241 212h19M240 213h21M239 214h23M238 215h24M238 216h25M237 217h27M237 218h28M236 219h29M236 220h30M236 221h31M236 222h32M236 223h33M236 224h34M236 225h35M236 226h36M237 227h36M237 228h37M237 229h38M238 230h39M239 231h39M371 231h10M239 232h40M369 232h14M240 233h40M368 233h17M241 234h41M366 234h20M242 235h41M363 235h24M242 236h43M361 236h23M385 236h3M243 237h44M359 237h30M244 238h45M357 238h32M245 239h46M355 239h35M246 240h47M352 240h38M246 241h49M349 241h42M247 242h51M346 242h45M248 243h53M341 243h50M249 244h57M335 244h56M250 245h64M327 245h64M251 246h140M252 247h139M253 248h138M254 249h136M255 250h135M256 251h134M257 252h132M259 253h129M260 254h128M261 255h126M263 256h123M264 257h40M305 257h79M265 258h118M268 259h31M300 259h80M269 260h109M271 261h105M272 262h102M274 263h98M276 264h93M278 265h89M281 266h83M469 266h11M283 267h79M467 267h15M286 268h73M466 268h17M289 269h66M465 269h19M292 270h60M464 270h21M296 271h52M463 271h23M300 272h44M462 272h25M305 273h32M462 273h26M318 274h5M461 274h27M461 275h28M461 276h29M461 277h30M460 278h32M460 279h33M460 280h34M460 281h35M461 282h34M461 283h35M461 284h37M462 285h37M462 286h38M462 287h39M597 287h8M463 288h40M594 288h13M464 289h40M592 289h17M465 290h40M591 290h19M465 291h42M589 291h22M466 292h42M587 292h25M467 293h43M585 293h28M468 294h44M583 294h30M468 295h46M580 295h34M469 296h47M578 296h36M470 297h49M575 297h40M471 298h51M571 298h44M472 299h53M567 299h48M473 300h55M563 300h52M474 301h60M558 301h57M475 302h67M547 302h68M476 303h139M477 304h138M478 305h137M479 306h135M480 307h134M481 308h133M482 309h131M483 310h129M485 311h126M486 312h124M488 313h121M489 314h119M491 315h115M492 316h112M494 317h108M495 318h53M549 318h51M497 319h101M500 320h95M502 321h90M504 322h85M506 323h81M509 324h75M511 325h70M513 326h66M381 327h2M517 327h59M377 328h11M521 328h49M375 329h15M528 329h35M373 330h18M536 330h21M372 331h20M371 332h22M370 333h24M370 334h25M369 335h26M369 336h26M368 337h28M368 338h28M368 339h28M367 340h29M367 341h29M367 342h29M366 343h30M366 344h30M365 345h31M365 346h31M364 347h31M364 348h31M364 349h30M363 350h31M363 351h30M362 352h31M362 353h31M362 354h30M361 355h31M361 356h31M360 357h31M360 358h31M359 359h32M360 360h30M359 361h31M359 362h31M358 363h31M358 364h31M357 365h31M357 366h31M357 367h31M356 368h31M356 369h31M355 370h31M355 371h31M355 372h30M354 373h31M354 374h31M353 375h31M353 376h31M353 377h30M352 378h31M352 379h31M351 380h31M351 381h31M351 382h30M350 383h31M350 384h31M349 385h1M351 385h29M349 386h31M349 387h30M348 388h31M348 389h31M348 390h30M347 391h31M347 392h30M346 393h31M346 394h31M345 395h31M345 396h31M345 397h31M344 398h31M344 399h31M343 400h31M343 401h31M343 402h30M342 403h31M342 404h31M342 405h30M341 406h31M341 407h31M340 408h31M340 409h31M340 410h30M339 411h31M339 412h31M339 413h30M338 414h31M338 415h30M337 416h31M337 417h31M336 418h31M336 419h31M336 420h31M335 421h31M335 422h31M334 423h31M334 424h31M333 425h32M333 426h31M333 427h31M332 428h31M332 429h31M332 430h31M331 431h31M331 432h31M331 433h31M330 434h31M330 435h31M330 436h30M329 437h31M329 438h30M328 439h31M328 440h31M327 441h31M327 442h31M327 443h30M326 444h31M326 445h31M325 446h31M325 447h31M325 448h30M324 449h31M324 450h31M324 451h30M323 452h31M323 453h30M322 454h31M322 455h31M322 456h30M321 457h31M321 458h30M320 459h31M320 460h31M319 461h31M319 462h31M319 463h31M318 464h31M318 465h31M318 466h30M317 467h31M317 468h31M317 469h30M316 470h31M316 471h31M316 472h30M316 473h30M315 474h31M315 475h30M315 476h30M314 477h31M314 478h30M314 479h30M314 480h30M314 481h29M314 482h29M314 483h29M314 484h29M314 485h29M313 486h29M313 487h29M313 488h29M313 489h29M313 490h29M313 491h28M313 492h28M313 493h28M313 494h28M313 495h29M313 496h29M313 497h29M313 498h29M313 499h29M313 500h29M314 501h28M314 502h29M314 503h29M314 504h30M314 505h30M314 506h31M314 507h31M315 508h31M315 509h32M315 510h33M316 511h34M401 511h12M316 512h35M393 512h23M316 513h37M388 513h30M317 514h39M382 514h38M317 515h43M377 515h44M317 516h106M318 517h106M318 518h107M319 519h107M320 520h107M320 521h108M321 522h107M321 523h108M322 524h107M323 525h106M323 526h106M324 527h106M325 528h105M326 529h104M327 530h103M329 531h100M330 532h99M331 533h98M332 534h29M362 534h67M333 535h95M335 536h93M337 537h90M339 538h87M341 539h84M343 540h57M407 540h17M346 541h48M408 541h15M350 542h38M410 542h10M354 543h30M358 544h19M342 617h8M339 618h13M338 619h16M535 619h8M336 620h20M532 620h13M335 621h22M531 621h16M334 622h24M529 622h20M333 623h26M527 623h23M333 624h26M524 624h27M332 625h28M523 625h29M331 626h30M521 626h31M331 627h31M519 627h34M331 628h31M517 628h37M330 629h33M516 629h38M330 630h34M514 630h40M330 631h35M511 631h44M330 632h36M509 632h46M330 633h37M508 633h47M330 634h38M504 634h51M330 635h39M501 635h54M330 636h40M500 636h55M331 637h40M497 637h58M331 638h41M495 638h60M332 639h42M492 639h62M332 640h44M489 640h65M333 641h46M486 641h67M333 642h47M483 642h70M334 643h48M479 643h73M335 644h49M476 644h76M336 645h51M470 645h81M336 646h53M467 646h83M337 647h55M462 647h87M338 648h57M459 648h88M338 649h63M453 649h25M479 649h67M339 650h70M445 650h98M340 651h78M436 651h106M341 652h198M342 653h196M343 654h193M344 655h190M344 656h188M345 657h186M346 658h182M347 659h179M349 660h175M350 661h173M352 662h168M353 663h165M354 664h162M356 665h159M358 666h154M360 667h148M361 668h145M364 669h139M365 670h135M367 671h131M369 672h126M372 673h118M374 674h113M376 675h107M379 676h85M465 676h13M381 677h95M384 678h86M390 679h75M392 680h69M400 681h54M405 682h1M407 682h37M418 683h8M427 683h8" />
<path stroke="rgba(65,116,232,0.9921568627450981)" d="M254 209h1M236 227h1M381 231h1M244 239h1M295 241h1M376 261h1M369 264h1M352 270h1M295 271h1M317 274h1M325 274h1M488 274h1M460 282h1M574 297h1M473 301h1M557 301h1M474 302h1M543 302h2M499 320h1M380 327h1M376 328h1M570 328h1M374 329h1M527 329h1M363 349h1M392 354h1M390 360h1M356 367h1M370 410h1M368 415h1M335 420h1M330 433h1M328 438h1M326 443h1M353 453h1M321 456h1M320 458h1M316 469h1M313 502h1M314 508h1M400 511h1M392 512h1M387 513h1M317 517h1M429 526h1M429 531h1M406 540h1M349 542h1M526 623h1M522 625h1M362 628h1M506 633h1M503 634h1M371 637h1M494 638h1M374 639h1M376 640h1M488 640h1M332 641h1M418 651h1M536 654h1M534 655h1M524 660h1M355 665h1M362 669h1M364 670h1M366 671h1M490 673h1M375 675h1M477 677h1M472 678h1M454 681h1M446 682h1M416 683h1" />
<path stroke="rgba(65,116,232,0.9176470588235294)" d="M255 209h1M388 236h1M290 270h1M353 270h1M471 299h1M567 329h1M530 330h1M313 505h1M373 515h1M429 533h1M417 543h1M533 619h1M544 619h1M554 629h1M505 633h1M502 634h1M492 638h1M554 640h1M403 649h1M523 661h1M356 666h1" />
<path stroke="rgba(65,116,232,0.7686274509803922)" d="M256 209h1M292 239h1M363 267h1M614 295h1M523 298h1M509 325h1M349 383h1M338 411h1M383 513h1M370 635h1M476 643h1M454 648h1M350 662h1M393 681h1M454 682h1M405 683h1M428 684h1" />
<path stroke="rgba(65,117,232,0.5215686274509804)" d="M257 209h1M283 234h1M388 327h1M397 339h1M343 501h1M512 629h1M444 649h1M380 678h1" />
<path stroke="rgba(66,115,230,0.24313725490196078)" d="M258 209h1M498 283h1M459 285h1M526 298h1M394 331h1M551 332h1M383 381h1M357 447h1M422 514h1M431 528h1M372 546h1M509 668h1M381 679h1M389 681h1M430 685h1" />
<path stroke="rgba(65,117,233,0.23137254901960785)" d="M240 210h1M583 292h1M523 330h1M365 340h1M355 365h1M339 406h1M334 419h1M366 424h1M396 510h1M549 620h1M553 624h1M519 625h1M553 645h1M549 649h1M351 664h1M432 685h1" />
<path stroke="rgba(65,115,232,0.5725490196078431)" d="M241 210h1M390 251h1M319 275h1M571 297h1M471 300h1M351 377h1M379 390h1M364 428h1M362 433h1M314 474h1M345 477h1M343 485h1M399 510h1M315 514h1M375 545h1M367 632h1M475 643h1M429 650h1" />
<path stroke="rgba(66,116,232,0.8549019607843137)" d="M242 210h1M236 217h1M264 217h1M373 230h1M238 232h1M297 241h1M377 261h1M345 272h1M309 274h1M500 321h1M373 329h1M539 331h1M418 543h1M362 545h1M372 545h1M489 639h1M489 674h1M465 680h1" />
<path stroke="rgba(65,116,232,0.984313725490196)" d="M243 210h1M367 233h1M365 234h1M243 238h1M388 253h1M262 256h1M465 268h1M483 268h1M463 270h1M485 270h1M461 273h1M460 276h1M586 292h1M582 294h1M577 296h1M475 303h1M611 311h1M501 321h1M503 322h1M564 329h1M534 330h1M558 330h1M369 334h1M367 339h1M394 349h1M385 372h1M341 405h1M357 443h1M355 448h1M343 481h1M313 484h1M351 512h1M328 531h1M388 542h1M534 619h1M543 619h1M554 630h1M508 632h1M370 636h1M554 639h1M487 640h1M478 643h1M384 644h1M475 644h1M389 646h1M396 648h1M452 649h1M409 650h1M348 660h1M495 672h1M370 673h1M487 674h1M388 679h1M402 682h1M447 682h1" />
<path stroke="rgba(65,116,232,0.9411764705882353)" d="M257 210h1M267 221h1M291 239h1M390 240h1M273 263h1M298 272h1M312 274h1M555 301h1M488 314h1M566 329h1M531 330h1M355 369h1M362 431h1M318 463h1M312 495h1M315 512h1M316 515h1M424 540h1M379 544h1M355 619h1M549 622h1M551 624h1M364 630h1M551 645h1M549 647h1M352 663h1M463 680h1M409 683h1" />
<path stroke="rgba(65,116,232,0.7333333333333333)" d="M258 210h1M342 273h1M395 334h1M392 356h1M333 423h1M388 512h1M366 515h1M504 633h1M341 654h1M347 660h1" />
<path stroke="rgba(66,116,232,0.396078431372549)" d="M259 210h1M279 231h1M389 236h1M324 244h3M277 266h1M463 268h1M590 289h1M581 293h1M331 642h1M344 658h1M367 673h1M382 679h1" />
<path stroke="rgba(64,118,228,0.10980392156862745)" d="M260 210h1M257 254h1M276 266h1M317 276h1M322 276h1M601 285h1M616 305h1M398 341h1M396 349h1M345 504h1M347 507h1M313 511h1M388 511h1M510 629h1M367 631h1M416 649h1M435 649h1M493 674h1M380 679h1" />
<path stroke="rgba(65,116,231,0.29411764705882354)" d="M239 211h1M238 212h1M387 256h1M275 265h1M496 281h1M616 300h1M397 337h1M311 490h1M311 499h1M354 512h1M427 518h1M350 544h1M385 544h1M357 545h1M360 622h1M333 645h1M543 652h1M393 682h1" />
<path stroke="rgba(65,116,232,0.6901960784313725)" d="M240 211h1M240 235h1M290 238h1M280 267h1M611 312h1M383 326h1M556 331h1M343 398h1M479 642h1M510 667h1M392 681h1" />
<path stroke="rgba(65,116,232,0.9490196078431372)" d="M241 211h1M385 233h1M334 244h1M316 245h1M466 267h1M482 267h1M330 274h1M463 289h1M525 299h1M378 327h1M393 332h1M396 339h1M388 365h1M387 368h1M330 432h1M361 434h1M327 440h1M313 504h1M362 515h1M389 542h1M550 623h1M474 644h1M550 646h1M402 649h1M546 649h1M421 651h1M531 657h1M358 667h1M504 669h1M450 682h1M439 683h1" />
<path stroke="rgba(66,116,232,0.8392156862745098)" d="M259 211h1M272 226h1M379 230h1M526 299h1M519 328h1M327 439h1M408 510h1M396 511h1M339 539h1M350 543h1M412 650h1M532 657h1M362 670h1M394 681h1M407 683h1M422 684h2" />
<path stroke="rgba(66,115,232,0.48627450980392156)" d="M260 211h1M293 239h1M459 275h1M476 305h1M615 306h1M483 311h1M335 417h1M366 423h1M351 461h1M311 497h1M423 515h1M319 522h1M518 626h1M451 683h1" />
<path stroke="rgba(64,113,234,0.1411764705882353)" d="M261 211h1M236 214h1M388 234h1M342 241h1M331 243h1M392 243h1M335 275h1M324 276h1M513 293h1M511 327h1M342 398h1M341 400h1M526 621h1M368 632h1M497 635h1M376 638h1M378 678h1M445 684h1" />
<path stroke="rgba(65,116,232,0.7254901960784313)" d="M239 212h1M330 244h1M482 310h1M577 327h1M345 476h1M343 502h1M382 544h1M491 638h1M526 660h1" />
<path stroke="rgba(65,116,232,0.9803921568627451)" d="M240 212h1M239 213h1M262 215h1M285 236h1M389 238h1M314 245h1M390 249h1M380 259h1M285 268h1M348 271h1M299 272h1M315 274h1M327 274h2M596 287h1M588 291h1M570 298h1M610 312h1M384 327h1M396 341h1M357 364h1M350 382h1M374 400h1M339 410h1M334 422h1M359 438h1M324 448h1M352 456h1M317 466h1M348 510h1M356 514h1M376 515h1M318 519h1M429 525h1M394 541h1M528 622h1M360 625h1M514 629h1M330 637h1M336 647h1M401 649h1M342 654h1M351 662h1M520 662h1M478 677h1M383 678h1M468 679h2M397 681h1M401 682h1M414 683h1" />
<path stroke="rgba(65,116,232,0.8784313725490196)" d="M260 212h1M269 223h1M382 231h1M333 244h1M470 298h1M569 298h1M530 300h1M494 318h1M545 331h1M378 391h1M373 404h1M312 491h1M389 512h1M525 623h1M523 624h1M483 641h1M473 644h1M404 649h1M364 671h1M443 683h1" />
<path stroke="rgba(65,117,231,0.5058823529411764)" d="M261 212h1M313 275h1M327 275h1M613 310h1M513 327h1M332 425h1M313 477h1M391 511h1M360 514h1M400 541h1M394 542h1M389 543h1M467 645h1M428 650h1" />
<path stroke="rgba(64,120,231,0.12549019607843137)" d="M262 212h1M547 300h1M551 300h1M482 311h1M384 325h1M577 328h1M357 360h1M383 382h1M357 448h1M400 509h1M405 509h1M368 514h1M337 539h1M516 626h1M328 629h1M499 634h1M491 637h1M485 639h1M478 641h1M445 648h1M542 653h1" />
<path stroke="rgba(64,115,234,0.23529411764705882)" d="M237 213h1M234 226h1M281 232h1M469 264h1M479 264h1M341 274h1M497 282h1M605 286h1M569 297h1M343 396h1M375 401h1M356 450h1M430 534h1M426 540h1M349 615h1M483 640h1M444 684h1" />
<path stroke="rgba(66,117,232,0.6862745098039216)" d="M238 213h1M301 242h1M261 256h1M542 301h1M547 301h1M392 330h1M563 330h1M318 461h1M430 526h1M364 629h1M330 639h1M368 673h1M415 684h1" />
<path stroke="rgba(65,116,232,0.8627450980392157)" d="M261 213h1M237 215h1M270 224h1M253 249h1M389 252h1M469 297h1M615 303h1M613 309h1M377 327h1M359 439h1M352 457h1M348 467h1M350 511h1M412 543h1M369 545h1M346 616h1" />
<path stroke="rgba(65,115,232,0.44313725490196076)" d="M262 213h1M593 322h1M343 397h1M311 494h1M334 537h1M329 628h1M503 633h1M385 643h1M525 661h1" />
<path stroke="rgba(64,115,230,0.0784313725490196)" d="M263 213h1M359 235h1M246 244h1M390 253h1M263 259h1M463 267h1M460 288h1M516 294h1M616 297h1M528 298h1M544 300h1M478 308h1M388 326h1M390 327h1M569 330h1M554 332h1M557 332h1M340 402h1M320 453h1M348 471h1M343 496h1M393 510h1M381 512h1M421 513h1M351 615h1M375 637h1M407 648h1M431 649h1M434 649h1M345 660h1M510 668h1M506 670h1M467 681h1M449 684h1M412 685h1" />
<path stroke="rgba(64,116,232,0.5764705882352941)" d="M237 214h1M248 245h1M462 289h1M565 330h1M371 410h1M359 545h1M378 640h1M544 651h1M488 675h1M437 684h1" />
<path stroke="rgba(65,116,232,0.9529411764705882)" d="M238 214h1M237 230h1M356 238h1M299 242h1M338 273h1M313 274h1M500 286h1M590 290h1M579 295h1M522 298h1M476 304h1M385 327h1M384 375h1M349 384h1M333 424h1M325 445h1M313 483h1M398 511h1M386 513h1M320 522h1M331 534h1M359 623h1M520 626h1M512 630h1M366 632h1M368 634h1M397 648h1M457 648h1M451 649h1M425 651h1M429 651h2M533 656h1M512 666h1M498 671h1M367 672h1M374 675h1M387 679h1M400 682h1" />
<path stroke="rgba(65,116,232,0.8)" d="M262 214h1M310 244h1M391 245h1M387 255h1M307 274h1M459 279h1M493 279h1M382 381h1M329 434h1M317 465h1M407 510h1M511 630h1M399 648h1M445 683h1" />
<path stroke="rgba(65,117,233,0.3254901960784314)" d="M263 214h1M370 230h1M347 240h1M459 274h1M466 295h1M494 319h1M349 381h1M311 489h1M429 521h1M339 653h1M530 659h1M409 684h1" />
<path stroke="rgba(85,128,212,0.023529411764705882)" d="M264 214h1M266 217h1M365 232h1M307 242h1M322 243h1M470 263h1M478 263h1M463 292h1M512 292h1M576 294h1M597 321h1M392 360h1M380 391h1M379 393h1M374 406h1M328 432h1M360 441h1M315 466h1M347 474h1M311 503h1M311 505h1M414 509h1M385 511h1M317 521h1M426 541h1M342 542h1M393 543h1M409 544h1M417 545h1M337 616h1M334 618h1M517 625h1M513 627h1M371 634h1M492 636h1M381 640h1M329 641h1M476 641h1M399 646h1M409 648h1M438 648h1M427 649h1M524 663h1M507 670h1M362 672h1M393 683h1M460 683h1M443 685h1" />
<path stroke="rgba(64,116,232,0.38823529411764707)" d="M236 215h1M272 225h1M287 236h1M323 244h1M460 272h1M391 360h1M355 366h1M371 411h1M345 478h1M405 541h1M340 616h1M509 630h1" />
<path stroke="rgba(65,116,232,0.6627450980392157)" d="M263 215h1M236 216h1M298 241h1M267 260h1M283 268h1M292 271h1M316 275h1M378 392h1M353 544h1M342 616h1M384 679h1" />
<path stroke="rgba(65,119,231,0.16862745098039217)" d="M264 215h1M392 244h1M531 299h1M541 300h1M509 326h1M369 331h1M528 331h1M561 331h1M388 369h1M346 388h1M340 403h1M368 420h1M333 421h1M311 500h1M330 535h1M361 546h1M465 645h1M446 648h1M414 649h1M526 661h1M474 679h1" />
<path stroke="rgba(62,113,232,0.17647058823529413)" d="M235 216h1M286 235h1M389 254h1M278 267h1M293 272h1M406 509h1M382 545h1M364 546h1M517 665h1" />
<path stroke="rgba(65,116,232,0.9882352941176471)" d="M237 216h1M265 219h1M306 244h1M384 257h1M374 262h1M473 265h1M475 265h1M280 266h1M464 269h1M484 269h1M316 274h1M326 274h1M501 287h1M464 290h1M614 306h1M487 313h1M361 354h1M354 372h1M383 377h1M348 387h1M347 390h1M378 390h1M372 405h1M337 415h1M351 458h1M347 469h1M413 511h1M322 525h1M340 539h1M342 540h1M353 543h1M350 617h1M337 619h1M332 624h1M516 628h1M491 639h1M484 641h2M392 647h1M458 648h1M434 651h1M540 652h1M538 653h1M526 659h1M516 664h1M368 672h1M378 676h1M481 676h1M467 679h1M455 681h1M403 682h1M415 683h1M436 683h1" />
<path stroke="rgba(65,116,232,0.9294117647058824)" d="M263 216h1M287 237h1M248 244h1M317 245h1M323 245h1M251 247h1M362 267h1M332 274h1M611 291h1M512 294h1M380 514h1M429 524h1M405 540h1M331 640h1M442 650h1M377 676h1M451 682h1" />
<path stroke="rgba(64,116,233,0.4980392156862745)" d="M264 216h1M384 258h1M378 261h1M471 264h1M477 264h1M579 294h1M493 318h1M369 332h1M365 341h1M361 351h1M387 370h1M345 392h1M376 398h1M339 407h1M349 466h1M311 495h1M533 618h1M544 618h1M555 640h1M503 670h1M457 682h1" />
<path stroke="rgba(65,117,233,0.3686274509803922)" d="M235 217h1M462 269h1M290 271h1M303 274h1M338 274h1M525 298h1M496 320h1M322 527h1M345 615h1M498 672h1" />
<path stroke="rgba(66,115,233,0.36470588235294116)" d="M265 217h1M322 244h1M522 297h1M561 299h1M502 323h1M541 332h1M346 389h1M342 399h1M329 432h1M362 434h1M354 454h1M314 512h1M363 627h1M442 649h1M489 675h1M394 682h1" />
<path stroke="rgba(64,116,232,0.5607843137254902)" d="M235 218h1M265 259h1M468 265h1M480 265h1M459 283h1M603 286h1M594 287h1M558 331h1M367 336h1M388 367h1M321 525h1M430 532h1M342 541h1M352 544h1M516 627h1" />
<path stroke="rgba(65,116,232,0.9607843137254902)" d="M236 218h1M274 228h1M375 230h1M302 243h1M249 245h1M480 266h1M282 267h1M462 271h1M489 275h1M514 295h1M529 300h1M612 310h1M609 313h1M493 317h1M590 322h1M532 330h1M393 352h1M391 357h1M345 394h1M373 403h1M367 418h1M358 441h1M323 450h1M354 451h1M350 461h1M349 464h1M347 509h1M384 543h1M414 543h1M378 544h1M373 638h1M493 638h1M387 645h1M431 651h1M380 677h1M473 678h1M438 683h1" />
<path stroke="rgba(64,116,232,0.7764705882352941)" d="M265 218h1M236 229h1M245 241h1M503 288h1M572 297h1M615 304h1M489 315h1M586 324h1M552 331h1M356 365h1M360 437h1M344 479h1M355 544h1M373 545h1M361 625h1M363 628h1M540 653h1M536 655h1M343 656h1M534 656h1" />
<path stroke="rgba(64,117,234,0.2823529411764706)" d="M266 218h1M461 270h1M614 309h1M519 329h1M386 373h1M330 429h1M312 507h1M480 641h1M454 647h1M449 648h1" />
<path stroke="rgba(64,116,232,0.6980392156862745)" d="M235 219h1M369 231h1M301 273h1M466 294h1M589 323h1M376 327h1M312 485h1M403 510h1M377 514h1M408 542h1M483 676h1M447 683h1M413 684h1" />
<path stroke="rgba(66,115,232,0.7019607843137254)" d="M266 219h1M277 230h1M548 301h2M474 303h1M594 321h1M555 331h1M348 385h1M343 484h1M402 510h1M404 510h1M392 542h1M356 619h1M550 622h1M551 623h1M398 682h1M414 684h1" />
<path stroke="rgba(65,116,232,0.21568627450980393)" d="M267 219h1M333 243h1M289 271h1M462 290h1M586 325h1M391 361h1M338 408h1M314 472h1M389 511h1M431 527h1M437 649h1M496 673h1M479 678h1M461 682h1M425 685h1" />
<path stroke="rgba(65,115,233,0.2784313725490196)" d="M234 220h1M507 325h1M326 439h1M360 439h1M411 509h1M370 546h2M364 628h1M466 645h1M538 655h1M359 669h1" />
<path stroke="rgba(65,115,232,0.788235294117647)" d="M235 220h1M278 231h1M391 244h1M464 268h1M515 295h1M323 449h1M315 513h1M365 515h1M430 528h1M428 536h1M386 543h1M547 620h1M553 626h1M553 643h1M547 649h1M389 680h1M466 680h1" />
<path stroke="rgba(65,116,232,0.9647058823529412)" d="M266 220h1M315 245h1M250 246h1M468 266h1M486 271h1M329 274h1M584 293h1M472 300h1M480 308h1M490 315h1M510 325h1M565 329h1M360 356h1M351 379h1M346 392h1M428 522h1M330 533h1M336 537h1M382 643h1M338 650h1M544 650h1M426 651h2M363 670h1M491 673h1M449 682h1M411 683h1" />
<path stroke="rgba(66,117,232,0.6078431372549019)" d="M267 220h1M359 236h1M300 273h1M614 308h1M391 359h1M346 390h1M346 507h1M427 538h1M335 647h1M401 648h1M462 681h1" />
<path stroke="rgba(66,115,230,0.12156862745098039)" d="M268 220h1M288 236h1M290 237h1M247 245h1M267 261h1M373 264h1M280 268h1M316 276h1M325 276h1M458 276h1M506 325h1M351 375h1M312 479h1M374 546h1M514 627h1M504 632h1M475 642h1M452 647h1M531 659h1M383 680h1M407 684h1" />
<path stroke="rgba(64,115,233,0.3568627450980392)" d="M234 221h1M282 233h1M358 236h1M484 267h1M329 275h1M539 332h1M546 332h1M314 473h1M311 493h1M343 500h1M345 505h1M390 511h1M403 541h1M495 636h1M461 646h1M369 674h1M452 683h1" />
<path stroke="rgba(64,116,232,0.4823529411764706)" d="M268 221h1M391 241h1M247 244h1M597 320h1M378 326h1M390 328h1M334 420h1M356 513h1M428 537h1M376 545h1M336 649h1M518 664h1M377 677h1" />
<path stroke="rgba(65,116,232,0.8862745098039215)" d="M235 222h1M282 234h1M470 265h1M297 272h1M310 274h1M462 288h1M507 291h1M606 315h1M546 331h1M549 331h1M363 348h1M352 376h1M342 487h1M396 541h1M330 638h1M398 648h1M521 662h1M496 672h1M485 675h1M474 678h1" />
<path stroke="rgba(65,116,232,0.9019607843137255)" d="M268 222h1M358 237h1M350 240h1M339 243h1M321 245h1M460 284h1M390 329h1M350 381h1M357 444h1M353 454h1M343 482h1M312 498h1M397 511h1M427 537h1M402 540h1M407 541h1M390 542h1M409 542h1M338 618h1M360 624h1M331 625h1M552 625h1M375 639h1M552 644h1M335 646h1M394 647h1M456 648h1M548 648h1M541 652h1M349 661h1M509 667h1M395 681h1" />
<path stroke="rgba(66,115,233,0.40784313725490196)" d="M269 222h1M375 229h1M237 232h1M337 412h1M385 512h1M402 541h1M394 646h1M398 647h1" />
<path stroke="rgba(66,117,233,0.4117647058823529)" d="M234 223h1M362 268h1M467 296h1M547 332h1M374 403h1M311 498h1" />
<path stroke="rgba(65,116,232,0.8941176470588236)" d="M235 223h1M289 238h1M320 245h1M254 250h1M275 264h1M333 274h1M615 300h1M386 327h1M394 333h1M389 363h1M343 399h1M368 416h1M344 505h1M323 527h1M333 622h1M362 627h1M372 637h1M385 644h1M460 647h1M449 649h1M382 678h1" />
<path stroke="rgba(64,117,231,0.4196078431372549)" d="M270 223h1M307 243h1M459 284h1M514 294h1M535 300h1M343 486h1M430 533h1M348 543h1M378 545h1M470 644h1M354 666h1M371 675h1" />
<path stroke="rgba(65,116,232,0.8705882352941177)" d="M235 224h1M252 248h1M370 264h1M507 324h1M540 331h1M544 331h1M352 512h1M317 518h1M465 646h1M440 650h1M501 670h1M371 674h1M453 682h1" />
<path stroke="rgba(66,117,232,0.42745098039215684)" d="M271 224h1M376 229h1M317 244h1M279 267h1M530 331h1M559 331h1M548 332h1M393 355h1M372 408h1M322 450h1M395 542h1M358 545h1M507 631h1M481 677h1" />
<path stroke="rgba(65,115,233,0.3215686274509804)" d="M234 225h1M243 240h1M244 241h1M320 244h1M353 271h1M339 274h1M519 296h1M358 358h1M385 376h1M341 401h1M312 482h1M410 509h1M357 513h1M374 637h1M329 638h1M441 649h1" />
<path stroke="rgba(66,117,232,0.8235294117647058)" d="M235 225h1M366 233h1M390 250h1M578 295h1M552 301h1M604 316h1M369 333h1M365 424h1M354 452h1M321 454h1M313 507h1M370 515h1M316 516h1M428 521h1M497 636h1M376 676h1M430 684h2" />
<path stroke="rgba(51,102,255,0.0196078431372549)" d="M233 226h1M381 229h1M282 232h1M241 239h1M392 240h1M327 243h1M264 260h1M370 266h1M365 268h1M282 269h1M360 270h1M294 273h1M312 276h1M495 279h1M500 284h1M604 285h1M607 286h1M584 291h1M581 292h1M616 296h1M535 299h1M486 315h1M370 329h1M526 331h1M566 331h1M532 332h1M365 338h1M398 345h1M359 354h1M355 363h1M353 369h1M388 370h1M384 380h1M343 394h1M377 398h1M340 401h1M332 422h1M329 429h1M365 429h1M362 436h1M319 456h1M354 457h1M318 458h1M316 464h1M312 476h1M346 478h1M344 485h1M380 512h1M431 524h1M423 543h1M348 544h1M390 544h1M384 545h1M343 614h1M331 621h1M329 624h1M366 629h1M327 632h1M327 633h1M495 635h1M377 638h1M480 640h1M386 642h1M391 644h1M454 646h1M449 647h1M426 649h1M335 650h1M543 653h1M540 655h1M530 660h1M347 662h1M357 669h1M359 670h1M364 673h1M486 677h1M376 678h1M481 678h1M381 680h1M385 681h1M452 684h1M409 685h1M420 686h1M424 686h1M430 686h3" />
<path stroke="rgba(65,116,232,0.7490196078431373)" d="M235 226h1M237 231h1M460 285h1M601 286h1M573 328h1M562 330h1M376 397h1M366 422h1M324 446h1M346 473h1M313 479h1M358 514h1M368 515h1M359 622h1M386 644h1M392 646h1M357 667h1M404 683h1M426 684h1" />
<path stroke="rgba(65,117,232,0.6431372549019608)" d="M235 227h1M242 238h1M329 244h1M305 274h1M315 275h1M607 315h1M564 330h1M364 344h1M328 532h1M329 533h1M406 541h1M331 624h1M555 630h1M373 637h1M555 639h1M384 643h1M449 683h1" />
<path stroke="rgba(66,116,231,0.4235294117647059)" d="M274 227h1M251 248h1M610 289h1M512 293h1M517 328h1M359 356h1M365 426h1M327 437h1M481 641h1M334 646h1" />
<path stroke="rgba(66,117,232,0.47058823529411764)" d="M235 228h1M315 244h1M470 299h1M477 306h1M375 327h1M312 505h1M375 514h1M329 637h1M425 650h1M516 665h1M387 680h1" />
<path stroke="rgba(65,116,232,0.9215686274509803)" d="M236 228h1M374 230h1M277 265h1M294 271h1M311 274h1M610 290h1M615 301h1M582 325h1M516 327h1M560 330h1M395 335h1M396 344h1M364 346h1M370 411h1M332 427h1M321 455h1M354 513h1M525 660h1" />
<path stroke="rgba(66,117,231,0.5490196078431373)" d="M275 228h1M313 244h1M466 266h1M524 298h1M532 331h1M397 343h1M330 430h1M429 535h1M514 628h1M348 661h1" />
<path stroke="rgba(66,113,236,0.10588235294117647)" d="M276 228h1M380 229h1M367 267h1M470 300h1M546 300h1M599 320h1M398 342h1M377 397h1M365 428h1M344 484h1M413 509h1M355 512h1M377 513h1M367 514h1M380 640h1M472 643h1M396 646h1M406 648h1M335 649h1M374 677h1" />
<path stroke="rgba(64,116,232,0.26666666666666666)" d="M235 229h1M242 239h1M377 262h1M616 303h1M381 386h1M425 516h1M320 524h1M429 536h1M381 545h1M343 615h1M342 656h1" />
<path stroke="rgba(65,116,232,0.996078431372549)" d="M275 229h1M238 231h1M383 232h1M241 235h1M283 235h1M354 239h1M245 240h1M298 242h1M345 242h1M301 243h1M267 259h1M270 261h1M474 265h1M288 269h1M304 273h1M337 273h1M323 274h2M460 277h1M495 282h1M496 283h1M461 285h1M508 292h1M467 294h1M516 296h1M528 300h1M542 302h1M545 302h2M592 321h1M589 322h1M508 324h1M584 324h1M383 327h1M563 329h1M535 330h1M557 330h1M395 336h1M366 342h1M393 351h1M358 362h1M352 377h1M381 382h1M350 385h1M379 387h1M377 392h1M373 402h1M338 413h1M363 428h1M331 430h1M329 436h1M323 451h1M313 485h1M341 491h1M341 492h1M341 493h1M341 494h1M313 501h1M345 507h1M315 511h1M353 513h1M316 514h1M360 515h1M421 515h1M319 520h1M420 542h1M352 618h1M354 619h1M545 620h1M530 621h1M547 621h1M359 624h1M552 626h1M515 629h1M513 630h1M507 633h1M499 636h1M372 638h1M331 639h1M553 641h1M380 642h1M482 642h1M552 643h1M335 645h1M395 648h1M547 648h1M444 650h1M543 650h1M435 651h1M539 652h1M343 655h1M532 656h1M528 658h1M357 666h1M359 667h1M508 667h1M506 668h1M363 669h1M503 669h1M371 673h1M373 674h1M483 675h1M478 676h3M476 677h1M470 678h2M389 679h1M465 679h2M461 680h1M398 681h2M404 682h1M406 682h1M444 682h2M417 683h1M426 683h1M435 683h1" />
<path stroke="rgba(65,117,231,0.24705882352941178)" d="M373 229h1M339 242h1M483 266h1M350 272h1M310 275h1M458 278h1M578 294h1M560 299h1M537 300h1M473 303h1M382 384h1M407 509h1M391 543h1M369 546h1M328 632h1M328 633h1M341 655h1M524 662h1M522 663h1" />
<path stroke="rgba(64,116,232,0.34509803921568627)" d="M374 229h1M360 269h1M596 286h1M377 326h1M525 330h1M367 335h1M347 386h1M336 414h1M353 457h1M313 476h1M384 512h1M374 514h1M423 542h1" />
<path stroke="rgba(66,117,231,0.3333333333333333)" d="M378 229h1M368 231h1M289 237h1M245 242h1M613 292h1M504 324h1M550 332h1M368 333h1M325 442h1M316 518h1M396 542h1M338 652h1M504 670h1" />
<path stroke="rgba(67,116,233,0.2235294117647059)" d="M379 229h1M391 250h1M383 259h1M308 275h2M572 296h1M396 334h1M427 539h1M328 631h1" />
<path stroke="rgba(64,117,234,0.09411764705882353)" d="M235 230h1M389 235h1M265 260h1M371 265h1M314 276h1M514 328h1M562 331h1M364 430h1M394 510h1M416 510h1M315 517h1M319 523h1M520 624h1M363 626h1M482 640h1M544 652h1M539 655h1M488 676h1M404 684h1M446 684h1" />
<path stroke="rgba(66,116,232,0.5333333333333333)" d="M236 230h1M381 230h1M302 242h1M389 253h1M359 269h1M557 300h1M478 307h1M385 375h1M323 448h1M529 620h1M537 655h1" />
<path stroke="rgba(67,115,231,0.20784313725490197)" d="M278 230h1M261 257h1M515 294h1M348 470h1M343 489h1M321 526h1M431 530h1M386 544h1M365 629h1M447 648h1M336 650h1" />
<path stroke="rgba(61,112,235,0.09803921568627451)" d="M369 230h1M280 231h1M392 242h1M312 243h1M480 264h1M295 273h1M492 276h1M368 332h1M366 336h1M355 364h1M390 364h1M343 395h1M330 428h1M359 443h1M354 456h1M311 484h1M316 519h1M393 645h1M348 662h1M523 663h1M356 668h1M497 673h1M475 679h1M405 684h1M417 685h1" />
<path stroke="rgba(65,115,233,0.5803921568627451)" d="M371 230h1M363 234h1M367 266h1M347 272h1M320 275h1M366 339h1M357 362h1M390 362h1M329 433h1M387 512h1M430 525h1M458 647h1M417 650h1M421 650h2M529 659h1M391 681h1M436 684h1" />
<path stroke="rgba(65,116,233,0.7568627450980392)" d="M372 230h1M349 240h1M379 260h1M272 263h1M496 282h1M461 287h1M596 320h1M350 380h1M379 389h1M361 435h1M355 450h1M353 455h1M342 489h1M342 498h1M430 527h1M367 545h1M472 644h1M339 652h1" />
<path stroke="rgba(65,116,232,0.9725490196078431)" d="M376 230h1M280 233h1M387 235h1M351 240h1M348 241h1M344 242h1M258 253h1M378 260h1M367 265h1M472 265h1M476 265h1M355 269h1M460 283h1M505 290h1M510 293h1M613 294h1M534 301h1M479 307h1M505 323h1M526 329h1M533 330h1M368 336h1M396 340h1M386 370h1M380 385h1M375 398h1M342 402h1M313 503h1M346 508h1M400 540h1M415 543h1M377 544h1M518 627h1M330 628h1M363 629h1M490 639h1M339 651h1M542 651h1M340 652h1M341 653h1M391 680h1M437 683h1" />
<path stroke="rgba(65,116,232,0.9568627450980393)" d="M377 230h1M240 234h1M293 240h1M359 268h1M466 293h1M478 306h1M392 331h1M366 341h1M396 343h1M395 347h1M344 397h1M336 417h1M365 423h1M342 486h1M390 512h1M416 512h1M374 515h1M428 535h1M338 538h1M425 539h1M345 541h1M416 543h1M361 626h1M466 646h1M393 647h1M420 651h1M428 651h1M518 663h1M365 671h1M484 675h1M410 683h1" />
<path stroke="rgba(65,116,232,0.9137254901960784)" d="M378 230h1M368 232h1M318 245h1M322 245h1M372 263h1M339 273h1M499 285h1M561 300h1M554 301h1M598 319h1M375 328h1M372 330h1M358 361h1M381 383h1M322 452h1M316 468h1M313 482h1M324 528h1M479 677h1M452 682h1" />
<path stroke="rgba(64,117,232,0.7294117647058823)" d="M380 230h1M391 243h1M278 266h1M599 286h1M615 298h1M377 394h1M372 407h1M332 426h1M312 501h1M405 510h1M446 649h1M524 661h1M522 662h1M487 675h1" />
<path stroke="rgba(60,120,225,0.06666666666666667)" d="M367 231h1M363 233h1M471 263h1M283 269h1M487 269h1M336 275h1M466 296h1M571 296h1M574 329h1M563 331h1M362 347h1M361 349h1M349 379h1M339 405h1M372 410h1M328 433h1M343 495h1M314 514h1M389 544h1M375 546h1M360 621h1M372 635h1M421 649h1M433 649h1M338 653h1M476 679h1" />
<path stroke="rgba(65,116,232,0.9058823529411765)" d="M370 231h1M487 272h1M504 289h1M576 296h1M615 302h1M481 309h1M593 321h1M548 331h1M396 338h1M365 343h1M383 378h1M379 388h1M377 393h1M355 449h1M347 470h1M342 500h1M343 503h1M385 513h1M420 514h1M332 535h1M334 621h1M548 621h1M353 664h1" />
<path stroke="rgba(65,116,232,0.6196078431372549)" d="M383 231h1M262 257h1M376 262h1M295 272h1M343 273h1M321 275h1M501 322h1M384 326h1M574 328h1M369 415h1M365 425h1M315 470h1M342 492h1M399 541h1M346 542h1M430 650h1M433 650h2" />
<path stroke="rgba(66,116,232,0.25882352941176473)" d="M384 231h1M281 268h1M517 295h1M346 475h1M317 520h1M326 531h1M339 540h1M344 542h1M542 617h1M556 631h1M556 638h1M381 641h1" />
<path stroke="rgba(77,128,230,0.0392156862745098)" d="M385 231h1M285 234h1M244 242h1M268 262h1M298 274h1M304 275h1M615 294h1M534 299h1M616 306h1M483 312h1M484 313h1M485 314h1M595 322h1M582 327h1M565 331h1M535 332h1M398 338h1M368 421h1M327 435h1M351 464h1M375 513h1M414 545h1M345 614h2M515 626h1M365 628h1M374 636h1M557 636h1M328 638h1M467 644h1M398 646h1M456 646h1M428 649h1M527 661h1M350 664h1M351 665h1M373 677h1M451 684h1M442 685h1" />
<path stroke="rgba(65,116,232,0.6039215686274509)" d="M280 232h1M461 271h1M318 275h1M326 275h1M397 342h1M395 349h1M342 494h1M316 517h1M410 543h1M522 624h1M365 630h1M329 636h1M352 664h1" />
<path stroke="rgba(65,115,230,0.2)" d="M366 232h1M538 300h1M611 313h1M366 337h1M393 356h1M387 371h1M380 389h1M344 393h1M367 422h1M329 431h1M362 546h2M368 546h1M508 630h1M392 645h1M453 647h1M528 660h1M347 661h1M375 677h1M408 684h1M419 685h1" />
<path stroke="rgba(65,116,232,0.596078431372549)" d="M367 232h1M361 235h1M341 242h1M249 246h1M472 264h1M476 264h1M582 293h1M379 326h1M534 331h1M380 387h1M312 484h1M342 493h1M416 511h1M376 514h1M429 522h1M393 542h1M510 630h1M402 683h1" />
<path stroke="rgba(65,116,232,0.8588235294117647)" d="M384 232h1M364 234h1M266 259h1M368 265h1M461 272h1M614 307h1M591 322h1M504 323h1M550 331h1M362 350h1M385 373h1M331 429h1M312 490h1M364 515h1M363 545h1M345 616h1M537 618h1M540 618h1M555 633h1M555 636h1M391 646h1M448 649h1M399 682h1" />
<path stroke="rgba(69,118,235,0.10196078431372549)" d="M386 232h1M354 237h1M468 264h1M466 265h1M482 265h1M354 271h1M305 275h1M599 285h1M606 286h1M543 300h1M398 340h1M374 405h1M366 425h1M324 443h1M358 445h1M343 497h1M348 508h1M430 522h1M331 536h1M424 542h1M378 639h1M387 643h1M363 672h1M388 681h1M466 681h1M406 684h1M435 685h1" />
<path stroke="rgba(68,119,230,0.11764705882352941)" d="M237 233h1M330 243h1M392 247h1M301 274h1M315 276h1M600 285h1M505 288h1M574 295h1M503 324h1M521 330h1M384 379h1M347 385h1M360 440h1M343 491h1M404 509h1M366 514h1M343 542h1M406 542h1M331 622h1M464 645h1M513 667h1M391 682h1M454 683h1" />
<path stroke="rgba(65,116,231,0.5098039215686274)" d="M238 233h1M385 326h1M531 331h1M358 359h1M355 451h1M520 625h1M390 645h1M462 646h1" />
<path stroke="rgba(65,117,232,0.9098039215686274)" d="M239 233h1M353 239h1M303 243h1M255 251h1M573 297h1M498 320h1M370 332h1M354 371h1M328 437h1M312 493h1M363 515h1M477 643h1M464 680h1" />
<path stroke="rgba(64,116,233,0.7607843137254902)" d="M281 233h1M305 243h1M391 246h1M260 255h1M373 263h1M469 265h1M354 270h1M464 291h1M486 313h1M365 342h1M388 366h1M315 471h1M519 626h1M485 640h1M468 645h1M513 666h1M505 669h1" />
<path stroke="rgba(66,117,229,0.19607843137254902)" d="M364 233h1M357 236h1M297 240h1M587 290h1M616 304h1M612 312h1M604 317h1M382 325h1M337 411h1M352 511h1M411 544h1M494 636h1M479 641h1M433 685h1" />
<path stroke="rgba(65,116,232,0.4745098039215686)" d="M365 233h1M263 258h1M287 270h1M611 290h1M614 294h1M566 330h1M315 469h1M386 512h1M351 616h1M332 622h1M372 636h1" />
<path stroke="rgba(65,116,231,0.5882352941176471)" d="M386 233h1M352 271h1M615 297h1M370 331h1M397 340h1M354 453h1M348 509h1M531 619h1M471 644h1M365 672h1M450 683h1M438 684h1" />
<path stroke="rgba(62,117,234,0.1450980392156863)" d="M387 233h1M305 242h1M379 261h1M473 263h1M475 263h1M369 266h1M589 324h1M367 334h1M348 383h1M379 392h1M369 417h1M326 438h1M353 458h1M352 460h1M315 467h1M401 509h1M395 510h1M378 513h1M365 546h1M355 617h1M555 642h1M334 647h1M471 680h1M434 685h1" />
<path stroke="rgba(67,114,235,0.14901960784313725)" d="M238 234h1M270 263h1M361 269h1M460 271h1M552 332h1M394 354h1M358 357h1M312 480h1M402 509h1M431 531h1M531 618h1M546 618h1M555 627h1M331 643h1M415 649h1M546 651h1M499 672h1" />
<path stroke="rgba(65,116,233,0.5843137254901961)" d="M239 234h1M306 243h1M336 243h1M336 274h1M567 298h1M355 367h1M331 428h1M344 480h1M420 543h1M546 619h1M554 627h1M329 629h1M554 642h1M468 680h1M411 684h1M440 684h1" />
<path stroke="rgba(70,116,232,0.08627450980392157)" d="M361 234h1M336 242h1M250 248h1M462 268h1M288 271h1M518 295h1M467 297h1M615 308h1M497 321h1M556 332h1M398 343h1M363 344h1M381 387h1M371 413h1M329 430h1M355 453h1M312 478h1M429 520h1M352 545h1M383 545h1M338 616h1M501 633h1M382 641h1M463 645h1M343 658h1M533 658h1M354 667h1M398 683h1M414 685h1" />
<path stroke="rgba(66,115,231,0.28627450980392155)" d="M362 234h1M343 241h1M390 252h1M487 270h1M340 274h1M494 279h1M609 288h1M553 300h1M606 316h1M393 330h1M356 363h1M335 416h1M311 492h1M415 510h1M377 639h1M335 648h1M439 649h1M362 671h1M470 680h1M423 685h1" />
<path stroke="rgba(65,116,232,0.9764705882352941)" d="M386 234h1M307 244h1M364 266h1M566 299h1M556 301h1M587 323h1M581 325h1M379 327h1M520 328h1M396 342h1M365 344h1M362 351h1M376 395h1M371 408h1M369 413h1M360 436h1M319 460h1M348 466h1M346 472h1M315 473h1M342 501h1M399 511h1M391 512h1M381 514h1M375 515h1M424 517h1M425 518h1M429 532h1M498 636h1M496 637h1M461 647h1M419 651h1M433 651h1M360 668h1M500 670h1M372 674h1M462 680h1M448 682h1M413 683h1" />
<path stroke="rgba(65,116,232,0.611764705882353)" d="M387 234h1M295 240h1M490 275h1M475 304h1M388 543h1M350 616h1M435 684h1" />
<path stroke="rgba(62,114,234,0.19215686274509805)" d="M239 235h1M390 237h1M292 238h1M490 274h1M458 277h1M465 294h1M594 322h1M381 325h1M371 329h1M327 436h1M323 446h1M318 459h1M345 479h1M371 514h1M329 534h1M342 615h1M333 620h1M372 676h1M487 676h1M426 685h1M428 685h1" />
<path stroke="rgba(65,117,232,0.7803921568627451)" d="M284 235h1M351 271h1M511 293h1M575 296h1M334 421h1M395 511h1M343 541h1M374 638h1M334 645h1M385 679h1M420 684h1" />
<path stroke="rgba(66,116,232,0.4392156862745098)" d="M285 235h1M335 243h1M327 244h1M395 333h1M401 541h1M345 542h1M351 544h1M330 640h1M521 663h1" />
<path stroke="rgba(67,115,233,0.27058823529411763)" d="M360 235h1M256 253h1M375 263h1M458 279h1M460 287h1M593 287h1M389 327h1M543 332h1M361 350h1M350 378h1M351 462h1M517 626h1" />
<path stroke="rgba(65,116,232,0.8980392156862745)" d="M362 235h1M347 241h1M319 245h1M356 269h1M605 287h1M536 301h1M484 311h1M547 331h1M351 459h1M312 492h1M325 529h1M380 544h1M370 545h2M369 673h1M390 680h1M458 681h1M408 683h1M442 683h1" />
<path stroke="rgba(65,116,233,0.5411764705882353)" d="M388 235h1M391 248h1M374 263h1M364 267h1M592 288h1M603 317h1M499 321h1M396 347h1M356 364h1M324 445h1M387 644h1M484 676h1M383 679h1M441 684h1" />
<path stroke="rgba(65,117,231,0.2901960784313726)" d="M240 236h1M489 273h1M608 315h1M576 328h1M560 331h1M394 353h1M337 651h1M421 685h1" />
<path stroke="rgba(65,116,232,0.8274509803921568)" d="M241 236h1M332 244h1M492 278h1M395 348h1M380 386h1M325 444h1M312 487h1M342 499h1M422 515h1M397 541h1M381 544h1M336 619h1M521 625h1M515 665h1M366 672h1M421 684h1" />
<path stroke="rgba(65,116,232,0.7411764705882353)" d="M286 236h1M390 239h1M306 274h1M559 300h1M396 346h1M339 408h1M425 517h1M542 618h1M459 647h1M338 651h1M446 683h1" />
<path stroke="rgba(61,121,231,0.08235294117647059)" d="M356 236h1M329 243h1M485 267h1M346 273h1M318 276h1M321 276h1M326 276h1M582 292h1M577 294h1M532 299h1M545 300h1M581 327h1M555 332h1M360 352h1M382 385h1M336 413h1M323 445h1M314 470h1M323 529h1M420 544h1M533 617h1M544 617h1M556 629h1M493 636h1M328 637h1M329 640h1M556 640h1M444 648h1M508 669h1M403 684h1M447 684h2" />
<path stroke="#4074e8" d="M384 236h1" />
<path stroke="rgba(64,116,231,0.4666666666666667)" d="M241 237h1M529 299h1M562 299h1M578 327h1M360 354h1M318 460h1M312 483h1M324 529h1M338 539h1M457 647h1M396 682h1" />
<path stroke="rgba(65,116,232,0.9372549019607843)" d="M242 237h1M324 245h1M263 257h1M271 262h1M461 286h1M535 301h1M595 320h1M525 329h1M382 380h1M329 435h1M356 446h1M312 496h1M427 520h1M401 540h1M395 541h1M351 543h1M333 643h1M390 646h1M337 649h1M423 651h1M535 655h1M457 681h1M440 683h1" />
<path stroke="rgba(65,116,232,0.6470588235294118)" d="M288 237h1M598 286h1M543 301h1M612 311h1M358 443h1M321 453h1M352 458h1M425 540h1M549 621h1M360 623h1M552 624h1M552 645h1M549 648h1M455 682h1" />
<path stroke="rgba(66,116,232,0.30196078431372547)" d="M355 237h1M259 255h1M333 275h1M493 278h1M364 429h1M324 444h1M343 487h1M521 624h1M383 642h1M400 683h1" />
<path stroke="rgba(64,115,232,0.5294117647058824)" d="M356 237h1M285 269h1M355 270h1M299 273h1M609 314h1M418 512h1M418 650h1" />
<path stroke="rgba(65,117,232,0.7372549019607844)" d="M357 237h1M462 270h1M613 293h1M568 298h1M553 331h1M367 337h1M360 355h1M322 451h1M313 508h1M412 510h1M394 511h1M535 618h1M555 631h1M555 638h1M415 650h1M381 678h1M433 684h1" />
<path stroke="rgba(65,116,231,0.7647058823529411)" d="M389 237h1M244 240h1M479 265h1M497 283h1M600 286h1M539 301h1M551 301h1M537 331h1M387 369h1M381 384h1M362 432h1M406 510h1M318 520h1" />
<path stroke="rgba(64,115,230,0.1568627450980392)" d="M241 238h1M262 258h1M385 258h1M474 263h1M358 270h1M461 289h1M572 329h1M395 332h1M343 498h1M344 502h1M350 615h1M353 616h1M524 622h1M522 623h1M436 649h1M353 666h1M465 681h1" />
<path stroke="rgba(64,115,232,0.43529411764705883)" d="M291 238h1M469 298h1M555 300h1M582 326h1M364 343h1M377 545h1M538 617h2M556 634h1M556 635h1M443 649h1M426 650h1" />
<path stroke="rgba(71,113,227,0.07058823529411765)" d="M351 238h1M477 263h1M594 286h1M592 287h1M479 309h1M385 325h1M527 331h1M350 377h1M313 474h1M343 492h1M376 513h1M324 530h1M430 535h1M336 617h1M552 622h1M329 625h1M512 628h1M458 646h1M432 649h1M358 669h1M361 671h1M365 673h1M455 683h1M436 685h1M439 685h2" />
<path stroke="rgba(65,114,233,0.1843137254901961)" d="M352 238h1M595 286h1M592 323h1M522 330h1M346 506h1M327 532h1M425 541h1M347 543h1M373 546h1M330 624h1M506 631h1M329 639h1M412 649h1M534 657h1M366 673h1" />
<path stroke="rgba(65,115,232,0.615686274509804)" d="M354 238h1M312 244h1M459 276h1M577 295h1M397 341h1M389 364h1M320 456h1M340 540h1" />
<path stroke="rgba(65,115,232,0.8313725490196079)" d="M355 238h1M460 274h1M595 287h1M565 299h1M615 299h1M568 329h1M396 337h1M391 358h1M351 378h1M346 391h1M375 399h1M336 416h1M326 530h1M364 545h1M515 628h1M346 659h1M373 675h1" />
<path stroke="rgba(65,116,231,0.4588235294117647)" d="M390 238h1M344 241h1M271 263h1M344 273h1M500 285h1M461 288h1M488 315h1M392 357h1M361 436h1M338 617h1M514 666h1M500 671h1M458 682h1M442 684h1" />
<path stroke="rgba(66,118,231,0.21176470588235294)" d="M294 239h1M310 243h1M366 267h1M296 273h1M506 289h1M585 291h1M537 332h1M397 346h1M392 358h1M354 368h1M328 434h1M358 513h1M364 514h1M428 519h1M397 542h1M502 633h1M330 641h1M332 644h1M460 646h1M400 647h1M352 665h1" />
<path stroke="rgba(67,121,228,0.07450980392156863)" d="M348 239h1M298 240h1M301 241h1M392 248h1M359 270h1M300 274h1M343 274h1M598 285h1M611 289h1M612 290h1M464 293h1M468 298h1M469 299h1M365 339h1M398 339h1M392 359h1M354 367h1M356 451h1M346 477h1M311 501h1M431 532h1M340 541h1M551 621h1M518 625h1M328 628h1M330 642h1M552 647h1M551 648h1M417 649h1M422 649h1M430 649h1M529 660h1M525 662h1M503 671h1M415 685h2" />
<path stroke="rgba(67,115,231,0.16470588235294117)" d="M391 239h1M458 282h1M487 315h1M380 325h1M584 326h1M515 328h1M397 336h1M359 355h1M343 490h1M365 514h1M369 514h1M408 543h1M354 545h1M534 617h1M543 617h1M329 626h1M556 630h1M556 639h1M490 675h1M399 683h1" />
<path stroke="rgba(65,116,232,0.8156862745098039)" d="M294 240h1M338 243h1M381 259h1M286 269h1M302 273h1M485 312h1M551 331h1M356 447h1M342 488h1M513 629h1M329 632h1M413 650h1M486 675h1" />
<path stroke="rgba(66,116,231,0.3803921568627451)" d="M296 240h1M246 243h1M386 326h1M325 530h1M390 543h1M495 673h1" />
<path stroke="rgba(67,112,232,0.13333333333333333)" d="M346 240h1M249 247h1M568 297h1M559 299h1M548 300h1M495 320h1M372 328h1M395 351h1M335 538h1M422 543h1M349 544h1M335 618h1M554 625h1M405 648h1M548 650h1M520 664h1M502 671h1" />
<path stroke="rgba(65,117,232,0.5568627450980392)" d="M348 240h1M508 291h1M563 299h1M340 405h1M331 535h1M355 618h1M334 620h1M380 641h1M478 642h1M494 673h1M374 676h1M472 679h1M397 682h1" />
<path stroke="rgba(66,116,233,0.3176470588235294)" d="M391 240h1M269 262h1M481 265h1M507 290h1M616 301h1M485 313h1M542 332h1M532 618h1M545 618h1M555 628h1M346 660h1M473 679h1" />
<path stroke="rgba(65,116,232,0.9450980392156862)" d="M296 241h1M343 242h1M325 245h1M471 265h1M477 265h1M287 269h1M331 274h1M460 275h1M607 288h1M614 296h1M600 318h1M388 328h1M391 330h1M353 374h1M340 407h1M344 478h1M314 509h1M418 513h1M423 516h1M426 538h1M531 620h1M546 620h1M553 627h1M365 631h1M367 633h1M481 642h1M553 642h1M469 645h1M422 651h1M424 651h1M529 658h1M396 681h1" />
<path stroke="rgba(64,115,232,0.39215686274509803)" d="M299 241h1M294 272h1M576 295h1M321 452h1M312 506h1M315 515h1M417 544h1M358 620h1M330 625h1M345 659h1" />
<path stroke="rgba(66,116,232,0.6392156862745098)" d="M345 241h1M276 265h1M369 265h1M460 273h1M317 275h1M569 329h1M348 468h1M313 478h1M413 510h1M314 511h1M534 618h1M543 618h1M330 626h1M488 639h1M435 650h1" />
<path stroke="rgba(64,116,232,0.792156862745098)" d="M346 241h1M386 256h1M484 268h1M459 280h1M494 280h1M345 393h1M378 514h1M347 542h1M352 617h1M475 678h1M460 681h1M406 683h1M432 684h1" />
<path stroke="rgba(65,116,232,0.8117647058823529)" d="M246 242h1M488 273h1M585 292h1M538 331h1M386 371h1M364 427h1M415 511h1M391 542h1M536 618h1M541 618h1M517 627h1M555 632h1M555 637h1M545 650h1" />
<path stroke="rgba(65,116,232,0.8431372549019608)" d="M300 242h1M383 258h1M468 296h1M560 300h1M583 325h1M357 363h1M384 376h1M319 459h1M410 510h1M356 544h1M347 616h1M381 642h1M455 648h1M439 650h1" />
<path stroke="rgba(65,114,232,0.2627450980392157)" d="M304 242h1M388 255h1M458 280h1M463 291h1M486 314h1M516 328h1M392 329h1M544 332h1M377 396h1M311 486h1M356 618h1M486 639h1M410 649h1M438 649h1" />
<path stroke="rgba(65,116,233,0.6274509803921569)" d="M391 242h1M574 296h1M558 300h1M544 301h1M368 334h1M342 400h1M359 514h1M445 649h1" />
<path stroke="rgba(65,115,232,0.8745098039215686)" d="M247 243h1M309 244h1M259 254h1M375 262h1M281 267h1M350 271h1M593 288h1M612 292h1M553 301h1M608 314h1M602 317h1M529 330h1M541 331h1M374 401h1M341 404h1M350 462h1M313 506h1M379 514h1M372 515h1M403 540h2M385 543h1M527 622h1M507 632h1M332 642h1M388 645h1M411 650h1" />
<path stroke="rgba(65,114,232,0.3058823529411765)" d="M308 243h1M334 243h1M311 275h1M530 299h1M616 302h1M481 310h1M588 324h1M583 326h1M529 331h1M362 348h1M357 361h1M408 509h1M313 510h1M348 615h1M550 621h1M552 623h1M515 627h1M388 644h1M552 646h1M550 648h1M440 649h1M379 678h1" />
<path stroke="rgba(65,118,229,0.15294117647058825)" d="M311 243h1M248 246h1M392 246h1M381 260h1M488 271h1M459 273h1M491 275h1M520 296h1M389 366h1M352 372h1M363 432h1M362 435h1M346 476h1M428 538h1M387 544h1M367 546h1" />
<path stroke="rgba(62,118,230,0.1607843137254902)" d="M332 243h1M272 264h1M342 274h1M306 275h1M527 298h1M616 298h1M373 407h1M361 437h1M321 451h1M312 508h1M349 509h1M382 512h1M424 515h1M431 526h1M489 638h1" />
<path stroke="rgba(64,116,233,0.7137254901960784)" d="M337 243h1M465 267h1M589 290h1M580 326h1M374 328h1M359 357h1M357 445h1M350 463h1M349 510h1M367 515h1M327 531h1M389 645h1" />
<path stroke="rgba(65,116,232,0.9686274509803922)" d="M340 243h1M326 245h1M291 270h1M344 272h1M314 274h1M562 300h1M559 330h1M364 426h1M322 453h1M314 476h1M361 515h1M426 519h1M329 532h1M334 536h1M352 543h1M341 617h1M353 618h1M356 620h1M357 621h1M358 622h1M510 631h1M369 635h1M500 635h1M334 644h1M443 650h1M432 651h1M456 681h1M412 683h1" />
<path stroke="rgba(65,116,233,0.9333333333333333)" d="M308 244h1M268 260h1M279 266h1M349 271h1M303 273h1M477 305h1M496 319h1M585 324h1M576 327h1M571 328h1M356 366h1M347 389h1M372 406h1M414 511h1M357 544h1M351 617h1M486 640h1M410 650h1M527 659h1M488 674h1M470 679h1" />
<path stroke="rgba(65,116,232,0.7058823529411765)" d="M311 244h1M346 272h1M489 274h1M323 275h1M513 294h1M554 331h1M341 403h1M342 490h1M387 543h1M360 545h1M331 641h1M551 646h1M550 647h1M467 680h1" />
<path stroke="rgba(65,115,233,0.49411764705882355)" d="M314 244h1M377 395h1M484 640h1M506 669h1" />
<path stroke="rgba(66,117,233,0.4549019607843137)" d="M316 244h1M337 274h1M397 344h1M326 440h1M350 464h1M316 466h1M346 474h1M375 638h1M402 648h1M511 667h1M491 674h1M401 683h1" />
<path stroke="rgba(64,117,232,0.3411764705882353)" d="M319 244h1M330 275h2M397 345h1M389 365h1M358 444h1M397 510h1M420 513h1M536 617h1M541 617h1M525 622h1M556 632h1M556 637h1M386 680h1" />
<path stroke="rgba(65,116,231,0.33725490196078434)" d="M321 244h1M297 273h1M332 275h1M567 330h1M395 350h1M363 431h1M530 619h1M547 619h1M331 623h1M554 626h1M554 643h1M391 645h1M547 650h1M343 657h1" />
<path stroke="rgba(65,115,233,0.5372549019607843)" d="M328 244h1M250 247h1M351 511h1M424 541h1M533 657h1M353 665h1M477 678h1" />
<path stroke="rgba(65,116,231,0.6745098039215687)" d="M391 247h1M601 318h1M599 319h1M503 323h1M380 326h1M352 375h1M344 395h1M373 405h1M382 513h1M333 644h1M396 647h1M448 683h1M418 684h1" />
<path stroke="rgba(64,115,231,0.32941176470588235)" d="M252 249h1M512 327h1M368 419h1M323 447h1M311 488h1M409 509h1M344 615h1M551 622h1M551 647h1M545 651h1" />
<path stroke="rgba(66,115,232,0.34901960784313724)" d="M253 250h1M372 264h1M370 265h1M464 267h1M607 287h1M317 463h1M421 543h1M380 545h1M455 647h1" />
<path stroke="rgba(66,116,231,0.5019607843137255)" d="M258 254h1M368 418h1M335 619h1M555 629h1M523 662h1" />
<path stroke="rgba(65,116,232,0.7098039215686275)" d="M388 254h1M270 262h1M335 274h1M324 275h1M459 277h1M506 324h1M536 331h1M368 417h1M329 635h1M400 648h1M355 666h1M480 677h1" />
<path stroke="#4175e8" d="M304 257h1M361 534h1M337 648h1M478 649h1" />
<path stroke="rgba(64,116,231,0.25098039215686274)" d="M386 257h1M357 270h1M472 302h1M365 427h1M363 514h1M373 514h1M355 667h1M357 668h1M385 680h1M424 685h1M431 685h1" />
<path stroke="rgba(66,116,231,0.807843137254902)" d="M264 258h1M587 291h1M583 293h1M523 329h1M528 330h1M314 475h1M411 510h1M368 545h1M336 648h1M447 649h1M538 654h1" />
<path stroke="#4174e9" d="M299 259h1M548 318h1M359 360h1M464 676h1" />
<path stroke="rgba(64,117,232,0.5137254901960784)" d="M382 259h1M304 274h1M597 286h1M534 300h1M360 438h1M311 496h1M408 649h1M358 668h1" />
<path stroke="rgba(64,117,232,0.2980392156862745)" d="M266 260h1M538 332h1M545 332h1M390 363h1M352 373h1M331 427h1M350 510h1M362 514h1M418 544h1M329 627h1M403 648h1M422 685h1" />
<path stroke="rgba(65,115,232,0.47843137254901963)" d="M268 261h1M348 272h1M556 300h1M394 352h1M415 544h1" />
<path stroke="rgba(62,114,229,0.11372549019607843)" d="M472 263h1M476 263h1M351 272h1M608 287h1M589 289h1M550 300h1M379 325h1M573 329h1M536 332h1M385 377h1M331 426h1M392 543h1M388 544h1M360 546h1M341 615h1M468 644h1M459 646h1M401 647h1M368 674h1M462 682h1" />
<path stroke="rgba(66,116,232,0.6549019607843137)" d="M274 264h1M473 264h1M606 287h1M487 314h1M374 402h1M335 418h1M342 496h1M482 641h1M463 646h1M542 652h1" />
<path stroke="rgba(64,115,231,0.37254901960784315)" d="M470 264h1M554 300h1M388 368h1M384 378h1M348 384h1M380 513h1M359 621h1M505 632h1M474 643h1M450 648h1" />
<path stroke="rgba(65,116,231,0.6784313725490196)" d="M474 264h1M602 286h1M564 299h1M584 325h1M326 441h1M374 545h1M337 618h1M436 650h1M360 669h1M378 677h1M476 678h1" />
<path stroke="rgba(65,116,232,0.7529411764705882)" d="M366 266h1M459 281h1M333 536h1M419 543h1M366 545h1M343 616h1M499 635h1M340 653h1M499 671h1M427 684h1" />
<path stroke="rgba(67,117,230,0.23921568627450981)" d="M465 266h1M616 299h1M498 321h1M500 322h1M571 329h1M343 488h1M343 499h1M315 516h1M431 529h1M528 620h1M448 648h1M507 669h1M501 671h1M492 674h1" />
<path stroke="rgba(65,116,231,0.7215686274509804)" d="M483 267h1M580 294h1M527 299h1M550 301h1M381 326h2M511 326h1M358 360h1M354 370h1M383 379h1M328 436h1M359 440h1M316 467h1M419 513h1M354 544h1M342 655h1M419 684h1" />
<path stroke="rgba(65,116,232,0.43137254901960786)" d="M282 268h1M573 296h1M468 297h1M344 481h1M487 639h1M535 656h1M527 660h1" />
<path stroke="rgba(66,116,233,0.6705882352941176)" d="M361 268h1M358 269h1M322 275h1M325 275h1M459 282h1M463 290h1M532 300h1M472 301h1M492 317h1M497 320h1M527 330h1M363 347h1M393 354h1M430 531h1M508 631h1M506 632h1" />
<path stroke="rgba(64,117,234,0.18823529411764706)" d="M363 268h1M511 292h1M615 295h1M539 300h1M552 300h1M376 326h1M391 328h1M568 330h1M372 409h1M320 454h1M316 465h1M313 475h1M311 485h1M419 512h1M370 514h1M419 544h1M355 545h1M369 633h1M328 635h1M515 666h1M505 670h1M482 677h1M384 680h1" />
<path stroke="rgba(65,116,232,0.796078431372549)" d="M463 269h1M485 269h1M296 272h1M538 301h1M515 327h1M364 345h1M355 368h1M349 465h1M369 515h1M429 523h1M322 526h1M348 616h1M530 620h1M414 650h1M471 679h1M429 684h1" />
<path stroke="rgba(64,118,230,0.20392156862745098)" d="M286 270h1M307 275h1M503 287h1M591 288h1M580 293h1M370 330h1M364 342h1M363 345h1M345 391h1M354 455h1M319 457h1M350 465h1M349 467h1M312 481h1M344 483h1M412 509h1M372 514h1M473 643h1M411 649h1M392 682h1" />
<path stroke="rgba(65,116,231,0.7176470588235294)" d="M288 270h1M541 301h1M473 302h1M522 329h1M351 460h1M355 513h1M337 538h1M349 616h1M528 621h1M461 681h1" />
<path stroke="rgba(66,116,232,0.5176470588235295)" d="M291 271h1M584 292h1M465 293h1M516 295h1M490 316h1M508 325h1M349 382h1M312 504h1M424 650h1" />
<path stroke="rgba(65,116,233,0.803921568627451)" d="M293 271h1M467 295h1M340 406h1M371 409h1M330 431h1M343 483h1M361 545h1M438 650h1M528 659h1M519 663h1M517 664h1M424 684h1" />
<path stroke="rgba(66,115,233,0.6235294117647059)" d="M487 271h1M502 287h1M391 329h1M362 349h1M342 495h1M312 502h1M392 511h1M526 622h1M520 663h1" />
<path stroke="rgba(65,116,233,0.4470588235294118)" d="M488 272h1M588 290h1M612 291h1M510 326h1M383 380h1M344 394h1M367 421h1M333 422h1M357 446h1M430 524h1M541 653h1M469 680h1" />
<path stroke="rgba(64,115,233,0.45098039215686275)" d="M298 273h1M585 325h1M520 329h1M382 383h1M356 449h1M416 544h1M361 624h1M427 650h1M463 681h1" />
<path stroke="rgba(64,114,232,0.2196078431372549)" d="M302 274h1M509 291h1M565 298h1M489 316h1M387 326h1M374 327h1M356 545h1M339 616h1M370 634h1M395 646h1M429 685h1" />
<path stroke="rgba(65,116,232,0.8352941176470589)" d="M308 274h1M498 284h1M509 292h1M517 296h1M561 330h1M353 373h1M347 388h1M344 396h1M371 636h1M494 637h1M480 642h1M383 643h1M344 657h1M359 668h1M507 668h1" />
<path stroke="rgba(64,117,231,0.592156862745098)" d="M314 275h1M533 300h1M338 410h1M383 544h1M353 617h1M546 650h1M439 684h1" />
<path stroke="rgba(65,115,231,0.41568627450980394)" d="M328 275h1M373 328h1M397 338h1M353 371h1M338 409h1M477 642h1M485 676h1M390 681h1M395 682h1" />
<path stroke="rgba(65,116,232,0.9254901960784314)" d="M490 276h1M519 297h1M512 326h1M371 331h1M392 355h1M359 358h1M348 386h1M338 412h1M366 421h1M312 494h1M312 497h1M348 542h1M413 543h1M529 621h1M495 637h1M450 649h1M539 653h1M537 654h1M361 669h1M441 683h1" />
<path stroke="rgba(65,116,232,0.5254901960784314)" d="M491 276h1M460 286h1M501 286h1M586 291h1M510 292h1M590 323h1M350 379h1M381 385h1M341 402h1M548 620h1M553 625h1M553 644h1M397 647h1M548 649h1M419 650h1M508 668h1" />
<path stroke="rgba(65,116,232,0.7725490196078432)" d="M459 278h1M495 281h1M591 289h1M531 300h1M389 328h1M312 486h1M429 534h1M411 543h1M357 620h1M329 631h1M464 646h1M425 684h1" />
<path stroke="rgba(65,116,232,0.30980392156862746)" d="M495 280h1M396 348h1M351 376h1M370 414h1M332 424h1M359 442h1M344 482h1M412 544h1M371 635h1M532 658h1M486 676h1" />
<path stroke="rgba(65,117,232,0.6509803921568628)" d="M608 288h1M615 305h1M535 331h1M557 331h1M353 372h1M342 491h1M400 510h1M349 543h1M337 650h1" />
<path stroke="rgba(65,117,232,0.6)" d="M505 289h1M528 299h1M521 329h1M371 330h1M394 332h1M363 430h1M325 443h1M353 512h1M421 514h1M317 519h1M393 646h1M452 648h1" />
<path stroke="rgba(65,116,232,0.5686274509803921)" d="M518 296h1M605 316h1M581 326h1M370 413h1M353 456h1" />
<path stroke="rgba(64,116,231,0.5450980392156862)" d="M479 308h1M587 324h1M372 329h1M386 372h1M375 400h1M359 441h1M319 458h1M381 513h1M341 616h1M366 631h1" />
<path stroke="rgba(64,116,232,0.6823529411764706)" d="M495 319h1M592 322h1M393 331h1M396 336h1M361 352h1M367 420h1M427 519h1M320 523h1M369 634h1M501 634h1M502 670h1" />
<path stroke="rgba(65,116,231,0.6313725490196078)" d="M518 328h1M347 387h1M336 415h1M344 504h1M330 534h1M524 623h1M368 633h1M493 637h1M376 639h1M431 650h2M531 658h1M363 671h1" />
<path stroke="rgba(65,116,233,0.49019607843137253)" d="M526 330h1M414 510h1M451 648h1M356 667h1M361 670h1" />
<path stroke="rgba(66,117,232,0.5647058823529412)" d="M533 331h1M317 464h1M362 626h1M496 636h1M423 650h1M539 654h1" />
<path stroke="rgba(64,116,233,0.6666666666666666)" d="M384 377h1M347 471h1M422 542h1M412 684h1M434 684h1" />
<path stroke="rgba(129,128,255,0.00784313725490196)" d="M315 518h1" />
<path stroke="rgba(65,115,232,0.43529411764705883)" d="M384 544h1" />
</svg>